<svg xmlns="http://www.w3.org/2000/svg" width="1200" height="900" viewBox="0 0 1200 900" role="img" aria-label="Превью приложения Бег к мечте">
  <defs>
    <filter id="shadow" x="-20%" y="-20%" width="140%" height="140%">
      <feDropShadow dx="0" dy="18" stdDeviation="20" flood-color="#0B0B0B" flood-opacity="0.10"/>
    </filter>
    <linearGradient id="bg" x1="0" x2="1" y1="0" y2="1">
      <stop offset="0" stop-color="#FFFFFF"/>
      <stop offset="1" stop-color="#F5F5F5"/>
    </linearGradient>
    <linearGradient id="limebar" x1="0" x2="0" y1="0" y2="1">
      <stop offset="0" stop-color="#B7FF00"/>
      <stop offset="1" stop-color="#7EA900"/>
    </linearGradient>
    <style>
      .title{font:800 64px Inter,Arial,sans-serif;fill:#0B0B0B}
      .h2{font:800 24px Inter,Arial,sans-serif;fill:#0B0B0B}
      .label{font:800 13px Inter,Arial,sans-serif;fill:#747474;text-transform:uppercase}
      .text{font:600 16px Inter,Arial,sans-serif;fill:#747474}
      .small{font:700 12px Inter,Arial,sans-serif;fill:#747474}
      .value{font:800 34px Inter,Arial,sans-serif;fill:#0B0B0B}
      .white{fill:#FFFFFF}
      .button{font:800 15px Inter,Arial,sans-serif;fill:#0B0B0B}
    </style>
  </defs>
  <rect width="1200" height="900" fill="url(#bg)"/>
  <circle cx="1020" cy="82" r="210" fill="#B7FF00" opacity="0.16"/>
  <g transform="translate(24 24)">
    <rect x="0" y="0" width="240" height="852" rx="20" fill="#F5F5F5"/>
    <rect x="0" y="0" width="220" height="220" rx="20" fill="#0B0B0B" filter="url(#shadow)"/>
    <rect x="24" y="24" width="50" height="50" rx="16" fill="#B7FF00"/>
    <text x="49" y="57" text-anchor="middle" font-family="Inter,Arial" font-size="24" font-weight="800" fill="#0B0B0B">Б</text>
    <text x="24" y="160" font-family="Inter,Arial" font-size="28" font-weight="800" fill="#FFFFFF">Бег к мечте</text>
    <text x="24" y="190" font-family="Inter,Arial" font-size="15" font-weight="600" fill="#B7B7B7">Спортивный дневник</text>
    <rect x="0" y="248" width="220" height="50" rx="20" fill="#FFFFFF"/>
    <text x="28" y="279" font-family="Inter,Arial" font-size="15" font-weight="800" fill="#0B0B0B">Главная</text>
    <text x="28" y="339" font-family="Inter,Arial" font-size="15" font-weight="800" fill="#747474">Пробежки</text>
    <text x="28" y="399" font-family="Inter,Arial" font-size="15" font-weight="800" fill="#747474">Профиль</text>
    <rect x="0" y="712" width="220" height="116" rx="20" fill="#FFFFFF" filter="url(#shadow)"/>
    <text x="20" y="750" class="label">Эта неделя</text>
    <text x="20" y="795" font-family="Inter,Arial" font-size="32" font-weight="800" fill="#0B0B0B">43.1 км</text>
  </g>
  <g transform="translate(292 24)">
    <rect x="0" y="0" width="610" height="286" rx="20" fill="#FFFFFF" filter="url(#shadow)"/>
    <text x="28" y="48" class="label">Бег к мечте</text>
    <text x="28" y="122" class="title">Привет, Ирина</text>
    <text x="28" y="158" class="text">Неделя выглядит сильной: уже 43.1 км, 5 пробежек</text>
    <text x="28" y="183" class="text">и спокойный рост без перегруза.</text>
    <rect x="28" y="220" width="142" height="46" rx="20" fill="#B7FF00"/>
    <text x="99" y="249" text-anchor="middle" class="button">Все пробежки</text>
    <rect x="184" y="220" width="166" height="46" rx="20" fill="#EDEDED"/>
    <text x="267" y="249" text-anchor="middle" class="button">Последний маршрут</text>
    <rect x="452" y="28" width="130" height="40" rx="20" fill="#ECFFD1"/>
    <text x="517" y="53" text-anchor="middle" font-family="Inter,Arial" font-size="13" font-weight="800" fill="#0B0B0B">20-25 мая</text>
  </g>
  <g transform="translate(922 24)">
    <rect x="0" y="0" width="254" height="286" rx="20" fill="#FFFFFF" filter="url(#shadow)"/>
    <circle cx="127" cy="136" r="88" fill="none" stroke="#EBEBEB" stroke-width="24"/>
    <path d="M127 48 A88 88 0 1 1 52 181" fill="none" stroke="#B7FF00" stroke-width="24" stroke-linecap="round"/>
    <circle cx="127" cy="136" r="62" fill="#FFFFFF"/>
    <text x="127" y="137" text-anchor="middle" font-family="Inter,Arial" font-size="54" font-weight="800" fill="#0B0B0B">4</text>
    <text x="127" y="169" text-anchor="middle" font-family="Inter,Arial" font-size="15" font-weight="800" fill="#747474">дня подряд</text>
  </g>
  <g transform="translate(292 334)">
    <g>
      <rect x="0" y="0" width="140" height="122" rx="20" fill="#FFFFFF" filter="url(#shadow)"/>
      <text x="18" y="34" class="label">Км за неделю</text>
      <text x="18" y="82" class="value">43.1</text>
      <text x="18" y="105" class="small">цель 42 км</text>
    </g>
    <g transform="translate(154 0)">
      <rect x="0" y="0" width="140" height="122" rx="20" fill="#FFFFFF" filter="url(#shadow)"/>
      <text x="18" y="34" class="label">Пробежки</text>
      <text x="18" y="82" class="value">5</text>
      <text x="18" y="105" class="small">4 типа</text>
    </g>
    <g transform="translate(308 0)">
      <rect x="0" y="0" width="140" height="122" rx="20" fill="#FFFFFF" filter="url(#shadow)"/>
      <text x="18" y="34" class="label">Время</text>
      <text x="18" y="82" class="value">4:06</text>
      <text x="18" y="105" class="small">часы и минуты</text>
    </g>
    <g transform="translate(462 0)">
      <rect x="0" y="0" width="140" height="122" rx="20" fill="#FFFFFF" filter="url(#shadow)"/>
      <text x="18" y="34" class="label">Средний темп</text>
      <text x="18" y="82" class="value">5:43</text>
      <text x="18" y="105" class="small">мин/км</text>
    </g>
    <g transform="translate(616 0)">
      <rect x="0" y="0" width="140" height="122" rx="20" fill="#FFFFFF" filter="url(#shadow)"/>
      <text x="18" y="34" class="label">Лучший темп</text>
      <text x="18" y="82" class="value">4:43</text>
      <text x="18" y="105" class="small">мин/км</text>
    </g>
    <g transform="translate(770 0)">
      <rect x="0" y="0" width="140" height="122" rx="20" fill="#FFFFFF" filter="url(#shadow)"/>
      <text x="18" y="34" class="label">Самая длинная</text>
      <text x="18" y="82" class="value">14.6</text>
      <text x="18" y="105" class="small">Каменск</text>
    </g>
  </g>
  <g transform="translate(292 486)">
    <text x="0" y="0" class="label">История</text>
    <text x="0" y="36" class="h2">Последние пробежки</text>
    <g transform="translate(0 58)">
      <rect x="0" y="0" width="592" height="132" rx="20" fill="#FFFFFF" filter="url(#shadow)"/>
      <text x="22" y="38" class="h2">Легкая · Челябинск</text>
      <text x="22" y="64" class="small">пн, 25 мая · старт 06:58</text>
      <rect x="22" y="82" width="116" height="34" rx="16" fill="#F1F1F1"/>
      <text x="80" y="104" text-anchor="middle" class="small">7.1 км</text>
      <rect x="150" y="82" width="116" height="34" rx="16" fill="#F1F1F1"/>
      <text x="208" y="104" text-anchor="middle" class="small">5:47</text>
      <rect x="278" y="82" width="116" height="34" rx="16" fill="#F1F1F1"/>
      <text x="336" y="104" text-anchor="middle" class="small">41:02</text>
      <rect x="424" y="16" width="144" height="100" rx="16" fill="#E5E5E5"/>
      <polyline points="438,94 455,58 488,76 511,42 540,64 552,30" fill="none" stroke="#B7FF00" stroke-width="7" stroke-linecap="round" stroke-linejoin="round"/>
    </g>
    <g transform="translate(0 206)">
      <rect x="0" y="0" width="592" height="132" rx="20" fill="#FFFFFF" filter="url(#shadow)"/>
      <text x="22" y="38" class="h2">Длинная · Каменск-Уральский</text>
      <text x="22" y="64" class="small">вс, 24 мая · старт 09:30</text>
      <rect x="22" y="82" width="116" height="34" rx="16" fill="#F1F1F1"/>
      <text x="80" y="104" text-anchor="middle" class="small">14.6 км</text>
      <rect x="150" y="82" width="116" height="34" rx="16" fill="#F1F1F1"/>
      <text x="208" y="104" text-anchor="middle" class="small">5:52</text>
      <rect x="278" y="82" width="116" height="34" rx="16" fill="#F1F1F1"/>
      <text x="336" y="104" text-anchor="middle" class="small">1:25:36</text>
      <rect x="424" y="16" width="144" height="100" rx="16" fill="#E5E5E5"/>
      <polyline points="438,82 462,36 496,48 520,76 550,50 560,88" fill="none" stroke="#B7FF00" stroke-width="7" stroke-linecap="round" stroke-linejoin="round"/>
    </g>
  </g>
  <g transform="translate(916 486)">
    <rect x="0" y="0" width="260" height="338" rx="20" fill="#FFFFFF" filter="url(#shadow)"/>
    <text x="24" y="38" class="label">Прогресс</text>
    <text x="24" y="72" class="h2">Километры по дням</text>
    <g transform="translate(28 110)">
      <rect x="0" y="118" width="18" height="12" rx="8" fill="url(#limebar)"/>
      <rect x="32" y="42" width="18" height="88" rx="8" fill="url(#limebar)"/>
      <rect x="64" y="78" width="18" height="52" rx="8" fill="url(#limebar)"/>
      <rect x="96" y="92" width="18" height="38" rx="8" fill="url(#limebar)"/>
      <rect x="128" y="118" width="18" height="12" rx="8" fill="url(#limebar)"/>
      <rect x="160" y="8" width="18" height="122" rx="8" fill="url(#limebar)"/>
      <rect x="192" y="68" width="18" height="62" rx="8" fill="url(#limebar)"/>
      <text x="0" y="160" class="small">Пн</text>
      <text x="32" y="160" class="small">Вт</text>
      <text x="64" y="160" class="small">Ср</text>
      <text x="96" y="160" class="small">Чт</text>
      <text x="128" y="160" class="small">Пт</text>
      <text x="160" y="160" class="small">Сб</text>
      <text x="192" y="160" class="small">Вс</text>
    </g>
  </g>
</svg>
