<svg xmlns="http://www.w3.org/2000/svg" width="462" height="462" viewBox="0 0 462 462" role="img" aria-label="QR код для приложения Бег к мечте"><rect width="100%" height="100%" fill="#fff"/><g fill="#0B0B0B"><rect x="56" y="56" width="14" height="14"/><rect x="70" y="56" width="14" height="14"/><rect x="84" y="56" width="14" height="14"/><rect x="98" y="56" width="14" height="14"/><rect x="112" y="56" width="14" height="14"/><rect x="126" y="56" width="14" height="14"/><rect x="140" y="56" width="14" height="14"/><rect x="168" y="56" width="14" height="14"/><rect x="182" y="56" width="14" height="14"/><rect x="224" y="56" width="14" height="14"/><rect x="266" y="56" width="14" height="14"/><rect x="280" y="56" width="14" height="14"/><rect x="308" y="56" width="14" height="14"/><rect x="322" y="56" width="14" height="14"/><rect x="336" y="56" width="14" height="14"/><rect x="350" y="56" width="14" height="14"/><rect x="364" y="56" width="14" height="14"/><rect x="378" y="56" width="14" height="14"/><rect x="392" y="56" width="14" height="14"/><rect x="56" y="70" width="14" height="14"/><rect x="140" y="70" width="14" height="14"/><rect x="168" y="70" width="14" height="14"/><rect x="196" y="70" width="14" height="14"/><rect x="210" y="70" width="14" height="14"/><rect x="224" y="70" width="14" height="14"/><rect x="238" y="70" width="14" height="14"/><rect x="266" y="70" width="14" height="14"/><rect x="308" y="70" width="14" height="14"/><rect x="392" y="70" width="14" height="14"/><rect x="56" y="84" width="14" height="14"/><rect x="84" y="84" width="14" height="14"/><rect x="98" y="84" width="14" height="14"/><rect x="112" y="84" width="14" height="14"/><rect x="140" y="84" width="14" height="14"/><rect x="168" y="84" width="14" height="14"/><rect x="182" y="84" width="14" height="14"/><rect x="196" y="84" width="14" height="14"/><rect x="224" y="84" width="14" height="14"/><rect x="266" y="84" width="14" height="14"/><rect x="308" y="84" width="14" height="14"/><rect x="336" y="84" width="14" height="14"/><rect x="350" y="84" width="14" height="14"/><rect x="364" y="84" width="14" height="14"/><rect x="392" y="84" width="14" height="14"/><rect x="56" y="98" width="14" height="14"/><rect x="84" y="98" width="14" height="14"/><rect x="98" y="98" width="14" height="14"/><rect x="112" y="98" width="14" height="14"/><rect x="140" y="98" width="14" height="14"/><rect x="182" y="98" width="14" height="14"/><rect x="196" y="98" width="14" height="14"/><rect x="210" y="98" width="14" height="14"/><rect x="308" y="98" width="14" height="14"/><rect x="336" y="98" width="14" height="14"/><rect x="350" y="98" width="14" height="14"/><rect x="364" y="98" width="14" height="14"/><rect x="392" y="98" width="14" height="14"/><rect x="56" y="112" width="14" height="14"/><rect x="84" y="112" width="14" height="14"/><rect x="98" y="112" width="14" height="14"/><rect x="112" y="112" width="14" height="14"/><rect x="140" y="112" width="14" height="14"/><rect x="168" y="112" width="14" height="14"/><rect x="196" y="112" width="14" height="14"/><rect x="238" y="112" width="14" height="14"/><rect x="266" y="112" width="14" height="14"/><rect x="280" y="112" width="14" height="14"/><rect x="308" y="112" width="14" height="14"/><rect x="336" y="112" width="14" height="14"/><rect x="350" y="112" width="14" height="14"/><rect x="364" y="112" width="14" height="14"/><rect x="392" y="112" width="14" height="14"/><rect x="56" y="126" width="14" height="14"/><rect x="140" y="126" width="14" height="14"/><rect x="168" y="126" width="14" height="14"/><rect x="182" y="126" width="14" height="14"/><rect x="238" y="126" width="14" height="14"/><rect x="266" y="126" width="14" height="14"/><rect x="308" y="126" width="14" height="14"/><rect x="392" y="126" width="14" height="14"/><rect x="56" y="140" width="14" height="14"/><rect x="70" y="140" width="14" height="14"/><rect x="84" y="140" width="14" height="14"/><rect x="98" y="140" width="14" height="14"/><rect x="112" y="140" width="14" height="14"/><rect x="126" y="140" width="14" height="14"/><rect x="140" y="140" width="14" height="14"/><rect x="168" y="140" width="14" height="14"/><rect x="196" y="140" width="14" height="14"/><rect x="224" y="140" width="14" height="14"/><rect x="252" y="140" width="14" height="14"/><rect x="280" y="140" width="14" height="14"/><rect x="308" y="140" width="14" height="14"/><rect x="322" y="140" width="14" height="14"/><rect x="336" y="140" width="14" height="14"/><rect x="350" y="140" width="14" height="14"/><rect x="364" y="140" width="14" height="14"/><rect x="378" y="140" width="14" height="14"/><rect x="392" y="140" width="14" height="14"/><rect x="168" y="154" width="14" height="14"/><rect x="182" y="154" width="14" height="14"/><rect x="196" y="154" width="14" height="14"/><rect x="224" y="154" width="14" height="14"/><rect x="238" y="154" width="14" height="14"/><rect x="266" y="154" width="14" height="14"/><rect x="84" y="168" width="14" height="14"/><rect x="140" y="168" width="14" height="14"/><rect x="154" y="168" width="14" height="14"/><rect x="168" y="168" width="14" height="14"/><rect x="196" y="168" width="14" height="14"/><rect x="210" y="168" width="14" height="14"/><rect x="238" y="168" width="14" height="14"/><rect x="252" y="168" width="14" height="14"/><rect x="294" y="168" width="14" height="14"/><rect x="308" y="168" width="14" height="14"/><rect x="322" y="168" width="14" height="14"/><rect x="336" y="168" width="14" height="14"/><rect x="364" y="168" width="14" height="14"/><rect x="378" y="168" width="14" height="14"/><rect x="392" y="168" width="14" height="14"/><rect x="56" y="182" width="14" height="14"/><rect x="112" y="182" width="14" height="14"/><rect x="168" y="182" width="14" height="14"/><rect x="196" y="182" width="14" height="14"/><rect x="210" y="182" width="14" height="14"/><rect x="252" y="182" width="14" height="14"/><rect x="308" y="182" width="14" height="14"/><rect x="322" y="182" width="14" height="14"/><rect x="392" y="182" width="14" height="14"/><rect x="70" y="196" width="14" height="14"/><rect x="84" y="196" width="14" height="14"/><rect x="98" y="196" width="14" height="14"/><rect x="126" y="196" width="14" height="14"/><rect x="140" y="196" width="14" height="14"/><rect x="168" y="196" width="14" height="14"/><rect x="182" y="196" width="14" height="14"/><rect x="238" y="196" width="14" height="14"/><rect x="252" y="196" width="14" height="14"/><rect x="280" y="196" width="14" height="14"/><rect x="308" y="196" width="14" height="14"/><rect x="322" y="196" width="14" height="14"/><rect x="336" y="196" width="14" height="14"/><rect x="364" y="196" width="14" height="14"/><rect x="378" y="196" width="14" height="14"/><rect x="392" y="196" width="14" height="14"/><rect x="56" y="210" width="14" height="14"/><rect x="70" y="210" width="14" height="14"/><rect x="154" y="210" width="14" height="14"/><rect x="168" y="210" width="14" height="14"/><rect x="210" y="210" width="14" height="14"/><rect x="238" y="210" width="14" height="14"/><rect x="280" y="210" width="14" height="14"/><rect x="294" y="210" width="14" height="14"/><rect x="308" y="210" width="14" height="14"/><rect x="322" y="210" width="14" height="14"/><rect x="336" y="210" width="14" height="14"/><rect x="378" y="210" width="14" height="14"/><rect x="56" y="224" width="14" height="14"/><rect x="84" y="224" width="14" height="14"/><rect x="140" y="224" width="14" height="14"/><rect x="224" y="224" width="14" height="14"/><rect x="238" y="224" width="14" height="14"/><rect x="252" y="224" width="14" height="14"/><rect x="266" y="224" width="14" height="14"/><rect x="280" y="224" width="14" height="14"/><rect x="308" y="224" width="14" height="14"/><rect x="322" y="224" width="14" height="14"/><rect x="350" y="224" width="14" height="14"/><rect x="378" y="224" width="14" height="14"/><rect x="392" y="224" width="14" height="14"/><rect x="70" y="238" width="14" height="14"/><rect x="154" y="238" width="14" height="14"/><rect x="168" y="238" width="14" height="14"/><rect x="210" y="238" width="14" height="14"/><rect x="224" y="238" width="14" height="14"/><rect x="238" y="238" width="14" height="14"/><rect x="252" y="238" width="14" height="14"/><rect x="294" y="238" width="14" height="14"/><rect x="308" y="238" width="14" height="14"/><rect x="322" y="238" width="14" height="14"/><rect x="350" y="238" width="14" height="14"/><rect x="392" y="238" width="14" height="14"/><rect x="56" y="252" width="14" height="14"/><rect x="98" y="252" width="14" height="14"/><rect x="112" y="252" width="14" height="14"/><rect x="140" y="252" width="14" height="14"/><rect x="154" y="252" width="14" height="14"/><rect x="168" y="252" width="14" height="14"/><rect x="196" y="252" width="14" height="14"/><rect x="210" y="252" width="14" height="14"/><rect x="224" y="252" width="14" height="14"/><rect x="280" y="252" width="14" height="14"/><rect x="294" y="252" width="14" height="14"/><rect x="322" y="252" width="14" height="14"/><rect x="336" y="252" width="14" height="14"/><rect x="364" y="252" width="14" height="14"/><rect x="378" y="252" width="14" height="14"/><rect x="392" y="252" width="14" height="14"/><rect x="70" y="266" width="14" height="14"/><rect x="98" y="266" width="14" height="14"/><rect x="126" y="266" width="14" height="14"/><rect x="154" y="266" width="14" height="14"/><rect x="168" y="266" width="14" height="14"/><rect x="196" y="266" width="14" height="14"/><rect x="224" y="266" width="14" height="14"/><rect x="238" y="266" width="14" height="14"/><rect x="266" y="266" width="14" height="14"/><rect x="294" y="266" width="14" height="14"/><rect x="308" y="266" width="14" height="14"/><rect x="322" y="266" width="14" height="14"/><rect x="350" y="266" width="14" height="14"/><rect x="378" y="266" width="14" height="14"/><rect x="56" y="280" width="14" height="14"/><rect x="98" y="280" width="14" height="14"/><rect x="126" y="280" width="14" height="14"/><rect x="140" y="280" width="14" height="14"/><rect x="168" y="280" width="14" height="14"/><rect x="210" y="280" width="14" height="14"/><rect x="224" y="280" width="14" height="14"/><rect x="238" y="280" width="14" height="14"/><rect x="252" y="280" width="14" height="14"/><rect x="266" y="280" width="14" height="14"/><rect x="280" y="280" width="14" height="14"/><rect x="294" y="280" width="14" height="14"/><rect x="308" y="280" width="14" height="14"/><rect x="322" y="280" width="14" height="14"/><rect x="336" y="280" width="14" height="14"/><rect x="350" y="280" width="14" height="14"/><rect x="168" y="294" width="14" height="14"/><rect x="196" y="294" width="14" height="14"/><rect x="210" y="294" width="14" height="14"/><rect x="238" y="294" width="14" height="14"/><rect x="252" y="294" width="14" height="14"/><rect x="280" y="294" width="14" height="14"/><rect x="336" y="294" width="14" height="14"/><rect x="350" y="294" width="14" height="14"/><rect x="364" y="294" width="14" height="14"/><rect x="378" y="294" width="14" height="14"/><rect x="392" y="294" width="14" height="14"/><rect x="56" y="308" width="14" height="14"/><rect x="70" y="308" width="14" height="14"/><rect x="84" y="308" width="14" height="14"/><rect x="98" y="308" width="14" height="14"/><rect x="112" y="308" width="14" height="14"/><rect x="126" y="308" width="14" height="14"/><rect x="140" y="308" width="14" height="14"/><rect x="168" y="308" width="14" height="14"/><rect x="252" y="308" width="14" height="14"/><rect x="266" y="308" width="14" height="14"/><rect x="280" y="308" width="14" height="14"/><rect x="308" y="308" width="14" height="14"/><rect x="336" y="308" width="14" height="14"/><rect x="378" y="308" width="14" height="14"/><rect x="392" y="308" width="14" height="14"/><rect x="56" y="322" width="14" height="14"/><rect x="140" y="322" width="14" height="14"/><rect x="224" y="322" width="14" height="14"/><rect x="238" y="322" width="14" height="14"/><rect x="252" y="322" width="14" height="14"/><rect x="266" y="322" width="14" height="14"/><rect x="280" y="322" width="14" height="14"/><rect x="336" y="322" width="14" height="14"/><rect x="350" y="322" width="14" height="14"/><rect x="56" y="336" width="14" height="14"/><rect x="84" y="336" width="14" height="14"/><rect x="98" y="336" width="14" height="14"/><rect x="112" y="336" width="14" height="14"/><rect x="140" y="336" width="14" height="14"/><rect x="210" y="336" width="14" height="14"/><rect x="224" y="336" width="14" height="14"/><rect x="238" y="336" width="14" height="14"/><rect x="252" y="336" width="14" height="14"/><rect x="280" y="336" width="14" height="14"/><rect x="294" y="336" width="14" height="14"/><rect x="308" y="336" width="14" height="14"/><rect x="322" y="336" width="14" height="14"/><rect x="336" y="336" width="14" height="14"/><rect x="56" y="350" width="14" height="14"/><rect x="84" y="350" width="14" height="14"/><rect x="98" y="350" width="14" height="14"/><rect x="112" y="350" width="14" height="14"/><rect x="140" y="350" width="14" height="14"/><rect x="182" y="350" width="14" height="14"/><rect x="238" y="350" width="14" height="14"/><rect x="252" y="350" width="14" height="14"/><rect x="266" y="350" width="14" height="14"/><rect x="280" y="350" width="14" height="14"/><rect x="294" y="350" width="14" height="14"/><rect x="336" y="350" width="14" height="14"/><rect x="364" y="350" width="14" height="14"/><rect x="56" y="364" width="14" height="14"/><rect x="84" y="364" width="14" height="14"/><rect x="98" y="364" width="14" height="14"/><rect x="112" y="364" width="14" height="14"/><rect x="140" y="364" width="14" height="14"/><rect x="168" y="364" width="14" height="14"/><rect x="196" y="364" width="14" height="14"/><rect x="238" y="364" width="14" height="14"/><rect x="266" y="364" width="14" height="14"/><rect x="280" y="364" width="14" height="14"/><rect x="294" y="364" width="14" height="14"/><rect x="336" y="364" width="14" height="14"/><rect x="350" y="364" width="14" height="14"/><rect x="392" y="364" width="14" height="14"/><rect x="56" y="378" width="14" height="14"/><rect x="140" y="378" width="14" height="14"/><rect x="238" y="378" width="14" height="14"/><rect x="252" y="378" width="14" height="14"/><rect x="280" y="378" width="14" height="14"/><rect x="294" y="378" width="14" height="14"/><rect x="336" y="378" width="14" height="14"/><rect x="350" y="378" width="14" height="14"/><rect x="378" y="378" width="14" height="14"/><rect x="56" y="392" width="14" height="14"/><rect x="70" y="392" width="14" height="14"/><rect x="84" y="392" width="14" height="14"/><rect x="98" y="392" width="14" height="14"/><rect x="112" y="392" width="14" height="14"/><rect x="126" y="392" width="14" height="14"/><rect x="140" y="392" width="14" height="14"/><rect x="238" y="392" width="14" height="14"/><rect x="252" y="392" width="14" height="14"/><rect x="280" y="392" width="14" height="14"/><rect x="294" y="392" width="14" height="14"/><rect x="308" y="392" width="14" height="14"/><rect x="322" y="392" width="14" height="14"/><rect x="378" y="392" width="14" height="14"/><rect x="392" y="392" width="14" height="14"/></g><text x="50%" y="452" text-anchor="middle" font-family="Inter, Arial, sans-serif" font-size="16" fill="#0B0B0B">http://192.168.0.18:4173/</text></svg>